{"glyphs":{":":{"x_min":0,"x_max":603,"ha":603,"o":"m 229 386 l 229 530 l 374 530 l 374 386 z m 229 0 l 229 145 l 374 145 l 374 0 z"},"$":{"x_min":0,"x_max":603,"ha":603,"o":"m 285 -60 l 285 0 q 257 0 215 6 q 173 13 105 39 l 105 121 q 209 71 285 71 l 285 333 l 249 356 q 183 401 151 444 q 120 488 120 544 q 120 611 165 663 q 210 716 291 723 l 291 783 l 351 783 l 351 723 q 400 720 430 712 q 459 705 499 691 l 499 612 q 428 647 351 655 l 351 397 l 383 377 q 446 340 482 296 q 517 252 517 191 q 517 128 476 70 q 434 12 345 0 l 345 -60 z m 345 72 q 377 80 393 95 q 410 110 419 133 q 429 157 429 181 q 429 210 411 237 q 393 264 367 282 l 345 297 z m 291 435 l 291 650 q 254 646 231 616 q 208 586 208 547 q 208 517 223 495 q 238 474 270 450 z"},"?":{"x_min":0,"x_max":603,"ha":603,"o":"m 205 0 l 205 108 l 325 108 l 325 0 z m 216 205 l 216 218 q 216 257 227 291 q 237 326 257 355 q 277 385 325 425 l 359 454 q 429 512 429 568 q 429 616 386 643 q 342 669 265 669 q 210 669 152 654 l 152 571 l 80 571 l 80 712 q 179 741 281 741 q 411 741 470 696 q 530 652 530 582 q 530 499 437 422 l 388 383 q 337 342 325 307 q 313 273 313 239 l 313 205 z"},"<":{"x_min":0,"x_max":603,"ha":603,"o":"m 560 0 l 42 259 l 560 518 l 560 437 l 204 259 l 560 81 z"},"'":{"x_min":0,"x_max":603,"ha":603,"o":"m 265 470 l 229 771 l 374 771 l 337 470 z"},"=":{"x_min":0,"x_max":603,"ha":603,"o":"m 42 139 l 42 211 l 560 211 l 560 139 z m 42 307 l 42 379 l 560 379 l 560 307 z"},"a":{"x_min":0,"x_max":603,"ha":603,"o":"m 408 64 q 359 23 317 7 q 275 -9 233 -9 q 163 -9 115 31 q 66 72 66 137 q 66 217 138 269 q 210 320 333 320 l 393 320 l 393 366 q 393 397 387 416 q 381 434 367 446 q 351 460 330 465 q 309 470 285 470 q 250 470 209 461 q 167 452 112 423 l 112 505 q 175 528 217 535 q 259 542 305 542 q 410 542 452 497 q 475 471 482 440 q 489 409 489 364 l 489 142 q 489 114 491 101 q 492 87 500 77 q 506 68 516 64 q 525 59 538 59 q 547 59 568 64 l 577 6 q 529 -9 504 -9 q 475 -9 449 4 q 424 17 408 64 z m 393 126 l 393 260 l 364 260 q 261 260 214 231 q 166 202 166 153 q 166 119 189 93 q 212 68 259 68 q 291 68 324 83 q 357 97 393 126 z"},"L":{"x_min":0,"x_max":603,"ha":603,"o":"m 108 0 l 108 723 l 205 723 l 205 72 l 542 72 l 542 0 z"},"3":{"x_min":0,"x_max":603,"ha":603,"o":"m 114 3 l 114 88 q 186 63 214 59 q 242 54 265 54 q 337 54 374 98 q 411 143 411 200 q 411 265 367 309 q 324 353 228 353 l 181 353 l 181 422 l 208 422 q 296 422 328 441 q 361 460 378 491 q 395 521 395 560 q 395 610 363 639 q 332 668 280 668 q 207 668 125 629 l 125 713 q 204 741 286 741 q 389 741 440 694 q 491 646 491 576 q 491 540 477 507 q 463 474 436 445 q 409 417 361 395 q 452 363 483 310 q 513 257 513 200 q 513 141 483 89 q 454 37 401 9 q 348 -18 263 -18 q 192 -18 114 3 z"},";":{"x_min":0,"x_max":603,"ha":603,"o":"m 229 -157 l 229 -108 q 247 -106 254 -101 q 262 -96 268 -87 q 276 -75 281 -59 q 287 -42 289 0 l 229 0 l 229 145 l 374 145 l 374 57 q 374 -23 356 -64 q 339 -104 308 -129 q 277 -154 229 -157 z m 229 386 l 229 530 l 374 530 l 374 386 z"},"J":{"x_min":0,"x_max":603,"ha":603,"o":"m 96 5 l 96 87 l 128 76 q 195 54 234 54 q 270 54 298 66 q 327 79 343 109 q 358 140 358 216 l 358 650 l 142 650 l 142 723 l 455 723 l 455 267 q 455 130 426 79 q 396 28 348 5 q 300 -18 241 -18 q 186 -18 96 5 z"},"V":{"x_min":0,"x_max":603,"ha":603,"o":"m 250 0 l 7 723 l 108 723 l 309 128 l 513 723 l 595 723 l 347 0 z"},"\"":{"x_min":0,"x_max":603,"ha":603,"o":"m 145 506 l 121 771 l 241 771 l 217 506 z m 386 506 l 361 771 l 482 771 l 458 506 z"},"7":{"x_min":0,"x_max":603,"ha":603,"o":"m 137 0 q 143 51 154 86 q 164 121 187 171 q 209 221 292 367 l 442 632 l 98 632 l 98 723 l 534 723 l 534 642 l 510 603 q 425 459 371 348 q 317 236 289 156 q 261 76 252 0 z"},"S":{"x_min":0,"x_max":603,"ha":603,"o":"m 80 17 l 80 112 q 207 54 298 54 q 339 54 375 70 q 411 85 430 115 q 449 146 449 180 q 449 249 363 294 l 223 367 q 146 408 115 451 q 85 495 85 553 q 85 628 138 684 q 190 741 305 741 q 388 741 493 711 l 493 628 q 388 668 305 668 q 266 668 236 657 q 205 646 190 621 q 175 596 175 568 q 175 536 196 508 q 216 480 271 452 l 402 384 q 486 341 516 297 q 545 253 545 195 q 545 104 479 43 q 413 -18 287 -18 q 255 -18 215 -13 q 175 -9 80 17 z"},"}":{"x_min":0,"x_max":603,"ha":603,"o":"m 103 -145 l 103 -72 l 141 -72 q 199 -72 224 -63 q 250 -54 262 -36 q 273 -18 273 7 q 273 23 269 53 l 257 120 q 251 154 251 177 q 251 206 260 231 q 268 257 289 279 q 311 301 348 313 q 311 325 289 347 q 268 370 260 395 q 251 420 251 450 q 251 473 257 506 l 269 574 q 273 604 273 619 q 273 657 248 678 q 223 699 141 699 l 103 699 l 103 771 l 155 771 q 233 771 276 753 q 318 735 340 702 q 361 668 361 630 q 361 601 354 564 l 338 478 q 334 458 334 439 q 334 350 444 350 l 488 350 l 488 277 l 444 277 q 400 277 378 265 q 355 253 345 235 q 334 217 334 188 q 334 168 338 149 l 354 62 q 361 26 361 -4 q 361 -62 315 -104 q 269 -145 155 -145 z"},"Z":{"x_min":0,"x_max":603,"ha":603,"o":"m 48 0 l 48 72 l 441 650 l 72 650 l 72 723 l 550 723 l 550 650 l 158 72 l 554 72 l 554 0 z"},"x":{"x_min":0,"x_max":603,"ha":603,"o":"m 45 0 l 243 268 l 46 530 l 167 530 l 313 334 l 448 530 l 543 530 l 363 269 l 563 0 l 443 0 l 292 203 l 143 0 z"},")":{"x_min":0,"x_max":603,"ha":603,"o":"m 72 771 q 184 759 263 694 q 343 629 388 530 q 434 431 434 313 q 434 195 388 96 q 342 -3 263 -68 q 184 -132 72 -145 l 72 -78 q 163 -60 219 -10 q 274 41 306 127 q 337 213 337 313 q 337 413 306 499 q 274 585 219 636 q 163 686 72 705 z"},"&":{"x_min":0,"x_max":603,"ha":603,"o":"m 470 0 l 434 43 q 354 -18 247 -18 q 174 -18 123 12 q 72 42 42 95 q 12 147 12 210 q 12 274 45 329 q 79 384 183 429 q 150 501 145 530 q 140 558 140 583 q 140 655 186 698 q 232 741 299 741 q 358 741 405 705 q 451 668 451 601 q 451 546 417 500 q 384 454 298 405 q 354 296 461 166 q 480 194 489 219 q 497 245 502 279 q 507 312 507 348 l 506 385 l 603 385 q 598 299 576 230 q 554 162 506 108 q 552 54 603 0 z m 391 99 q 319 187 282 245 q 245 303 212 369 q 161 344 136 309 q 112 274 112 230 q 112 184 132 143 q 153 101 186 78 q 219 54 264 54 q 326 54 391 99 z m 270 469 q 315 491 339 525 q 362 560 362 594 q 362 628 344 648 q 326 668 300 668 q 272 668 254 646 q 235 623 235 592 q 235 547 270 469 z"},"_":{"x_min":0,"x_max":603,"ha":603,"o":"m 0 -72 l 0 0 l 603 0 l 603 -72 z"},"v":{"x_min":0,"x_max":603,"ha":603,"o":"m 250 0 l 30 530 l 129 530 l 305 105 l 487 530 l 572 530 l 347 0 z"},"O":{"x_min":0,"x_max":603,"ha":603,"o":"m 301 -18 q 170 -18 100 89 q 30 196 30 361 q 30 527 101 634 q 171 741 301 741 q 432 741 502 634 q 572 527 572 361 q 572 196 502 89 q 432 -18 301 -18 z m 301 54 q 383 54 427 130 q 470 207 470 362 q 470 517 427 593 q 383 668 301 668 q 220 668 176 593 q 133 517 133 362 q 133 207 176 130 q 219 54 301 54 z"},"(":{"x_min":0,"x_max":603,"ha":603,"o":"m 530 -145 q 418 -132 339 -68 q 260 -3 214 96 q 168 195 168 313 q 168 431 214 530 q 260 629 339 694 q 418 759 530 771 l 530 705 q 439 687 384 636 q 328 585 296 500 q 265 414 265 313 q 265 213 296 127 q 328 41 383 -9 q 439 -60 530 -78 z"},"C":{"x_min":0,"x_max":603,"ha":603,"o":"m 564 17 q 468 -18 382 -18 q 308 -18 248 6 q 188 31 148 73 q 98 127 74 201 q 50 274 50 356 q 50 437 73 514 q 97 591 140 640 q 183 689 246 715 q 310 741 379 741 q 460 741 556 713 l 556 624 q 459 668 377 668 q 326 668 282 645 q 239 622 212 583 q 182 536 167 477 q 152 418 152 357 q 152 224 218 145 q 252 104 301 83 q 350 61 407 61 q 473 61 564 96 z"},"W":{"x_min":0,"x_max":603,"ha":603,"o":"m 101 0 l 8 723 l 90 723 l 166 106 l 167 106 l 258 530 l 351 530 l 439 112 l 440 112 l 521 723 l 594 723 l 491 0 l 387 0 l 300 404 l 299 404 l 212 0 z"},"A":{"x_min":0,"x_max":603,"ha":603,"o":"m 6 0 l 253 723 l 349 723 l 596 0 l 494 0 l 424 205 l 159 205 l 89 0 z m 183 277 l 400 277 l 292 594 z"},"f":{"x_min":0,"x_max":603,"ha":603,"o":"m 217 0 l 217 446 l 72 446 l 72 518 l 217 518 l 217 574 q 217 633 228 668 q 243 720 295 752 q 347 783 438 783 q 517 783 586 762 l 586 686 q 515 711 446 711 q 377 711 343 682 q 327 668 320 649 q 313 629 313 584 l 313 518 l 566 518 l 566 446 l 313 446 l 313 0 z"},"Q":{"x_min":0,"x_max":603,"ha":603,"o":"m 552 -157 q 481 -129 433 -98 q 385 -67 334 -18 l 302 -18 q 171 -18 101 89 q 30 196 30 361 q 30 528 101 634 q 171 741 301 741 q 432 741 502 634 q 572 528 572 361 q 572 253 540 160 q 507 68 419 6 q 508 -52 615 -76 z m 133 361 q 133 206 176 130 q 220 54 301 54 q 383 54 427 130 q 470 207 470 362 q 470 517 427 593 q 383 668 301 668 q 220 668 176 593 q 133 517 133 361 z"},"w":{"x_min":0,"x_max":603,"ha":603,"o":"m 103 0 l 6 530 l 95 530 l 165 115 l 166 115 l 260 482 l 354 482 l 443 101 l 444 101 l 522 530 l 596 530 l 490 0 l 396 0 l 302 396 l 301 396 l 198 0 z"},"-":{"x_min":0,"x_max":603,"ha":603,"o":"m 103 265 l 103 337 l 500 337 l 500 265 z"},"E":{"x_min":0,"x_max":603,"ha":603,"o":"m 105 0 l 105 723 l 529 723 l 529 650 l 202 650 l 202 418 l 479 418 l 479 346 l 202 346 l 202 72 l 551 72 l 551 0 z"},"s":{"x_min":0,"x_max":603,"ha":603,"o":"m 91 21 l 91 108 q 203 60 285 60 q 351 60 385 86 q 420 113 420 144 q 420 166 403 184 q 386 201 329 219 l 226 253 q 170 271 138 305 q 105 339 105 391 q 105 458 156 500 q 208 542 313 542 q 345 542 379 539 q 414 536 487 519 l 487 441 q 392 470 313 470 q 258 470 228 450 q 197 430 197 399 q 197 379 212 365 q 226 350 269 335 l 391 292 q 464 267 490 233 q 515 199 515 152 q 515 84 457 36 q 399 -12 287 -12 q 195 -12 91 21 z"},">":{"x_min":0,"x_max":603,"ha":603,"o":"m 42 518 l 560 259 l 42 0 l 42 81 l 398 259 l 42 437 z"},"l":{"x_min":0,"x_max":603,"ha":603,"o":"m 289 0 l 289 699 l 84 699 l 84 771 l 386 771 l 386 0 z"},"8":{"x_min":0,"x_max":603,"ha":603,"o":"m 213 394 q 115 466 115 560 q 115 631 166 686 q 216 741 322 741 q 419 741 464 696 q 509 651 509 585 q 509 530 475 482 q 441 434 382 398 q 480 338 509 292 q 538 245 538 190 q 538 133 508 84 q 477 35 425 9 q 373 -18 303 -18 q 234 -18 184 7 q 134 32 106 79 q 78 126 78 182 q 78 242 114 299 q 149 355 213 394 z m 265 354 q 204 305 188 267 q 173 230 173 194 q 173 130 212 92 q 252 54 312 54 q 368 54 405 89 q 441 123 441 170 q 441 250 329 316 z m 328 431 q 372 458 397 495 q 422 532 422 569 q 422 606 396 637 q 370 668 313 668 q 259 668 232 640 q 205 612 205 573 q 205 537 229 506 q 253 476 302 446 z"},"\\":{"x_min":0,"x_max":603,"ha":603,"o":"m 485 -145 l 36 771 l 117 771 l 566 -145 z"},"e":{"x_min":0,"x_max":603,"ha":603,"o":"m 536 21 q 511 13 498 9 q 461 -2 425 -7 q 389 -12 353 -12 q 203 -12 136 65 q 69 142 69 259 q 69 376 137 459 q 206 542 319 542 q 416 542 474 484 q 533 425 533 271 l 533 240 l 171 240 q 177 138 233 99 q 289 60 366 60 q 443 60 536 97 z m 174 312 l 430 312 l 430 326 q 430 403 396 437 q 362 470 311 470 q 255 470 218 429 q 181 388 174 312 z"},"b":{"x_min":0,"x_max":603,"ha":603,"o":"m 84 -6 l 84 771 l 181 771 l 181 530 l 175 431 l 181 431 q 216 486 259 514 q 302 542 354 542 q 445 542 497 471 q 548 400 548 283 q 548 151 489 72 q 458 31 416 9 q 373 -12 326 -12 q 288 -12 252 2 q 217 17 181 60 l 175 60 l 157 -6 z m 181 132 q 214 96 247 78 q 280 60 312 60 q 366 60 406 108 q 446 157 446 272 q 446 375 414 417 q 382 460 334 460 q 301 460 260 436 q 219 412 181 358 z"},"%":{"x_min":0,"x_max":603,"ha":603,"o":"m 0 -18 l 529 741 l 603 741 l 73 -18 z m 148 392 q 108 392 74 410 q 40 429 20 470 q 0 512 0 557 q 0 602 20 643 q 40 684 73 703 q 107 723 148 723 q 189 723 223 703 q 257 683 277 642 q 296 602 296 557 q 296 511 276 470 q 255 429 221 410 q 187 392 148 392 z m 148 440 q 178 440 201 470 q 224 500 224 557 q 224 613 201 644 q 179 675 148 675 q 117 675 95 644 q 73 613 73 557 q 73 500 96 470 q 119 440 148 440 z m 455 0 q 416 0 381 19 q 347 38 327 79 q 307 120 307 166 q 307 210 327 251 q 346 292 380 312 q 414 332 455 332 q 496 332 530 311 q 564 291 583 250 q 603 210 603 166 q 603 120 582 78 q 562 37 528 19 q 494 0 455 0 z m 455 48 q 484 48 507 78 q 530 108 530 166 q 530 222 508 252 q 486 283 455 283 q 424 283 402 252 q 379 222 379 166 q 379 108 402 78 q 425 48 455 48 z"},"m":{"x_min":0,"x_max":603,"ha":603,"o":"m 45 0 l 45 530 l 130 530 l 124 431 l 130 431 q 161 486 188 514 q 216 542 248 542 q 282 542 308 513 q 333 484 337 431 l 344 431 q 364 475 395 508 q 426 542 463 542 q 490 542 513 527 q 536 511 547 483 q 558 456 558 388 l 558 0 l 473 0 l 473 384 q 473 422 470 434 q 467 446 459 452 q 451 459 443 459 q 420 459 392 423 q 364 388 344 342 l 344 0 l 259 0 l 259 367 q 259 418 256 431 q 252 444 244 451 q 236 458 228 458 q 207 458 178 424 q 150 389 130 341 l 130 0 z"},"#":{"x_min":0,"x_max":603,"ha":603,"o":"m 83 0 l 138 220 l 25 220 l 40 292 l 156 292 l 191 435 l 68 435 l 83 507 l 209 507 l 263 723 l 337 723 l 284 507 l 397 507 l 450 723 l 525 723 l 471 507 l 583 507 l 568 435 l 452 435 l 417 292 l 540 292 l 525 220 l 399 220 l 346 0 l 271 0 l 324 220 l 211 220 l 158 0 z m 230 292 l 342 292 l 378 437 l 266 435 z"},",":{"x_min":0,"x_max":603,"ha":603,"o":"m 229 -157 l 229 -108 q 250 -105 260 -97 q 269 -88 276 -73 q 283 -57 287 -22 l 289 0 l 229 0 l 229 145 l 374 145 l 374 57 q 374 -23 356 -64 q 339 -104 308 -129 q 277 -154 229 -157 z"},"n":{"x_min":0,"x_max":603,"ha":603,"o":"m 89 0 l 89 530 l 185 530 l 179 431 l 185 431 q 217 484 265 513 q 312 542 366 542 q 441 542 483 491 q 503 466 510 437 q 517 407 517 363 l 517 0 l 420 0 l 420 336 q 420 367 418 385 q 415 404 405 419 q 394 436 375 443 q 357 451 336 451 q 297 451 261 425 q 225 399 185 347 l 185 0 z"},"h":{"x_min":0,"x_max":603,"ha":603,"o":"m 89 0 l 89 771 l 185 771 l 185 530 l 179 431 l 185 431 q 217 484 265 513 q 312 542 366 542 q 441 542 483 491 q 503 466 510 437 q 517 407 517 363 l 517 0 l 420 0 l 420 336 q 420 367 418 385 q 415 404 405 419 q 394 436 375 443 q 357 451 336 451 q 297 451 261 425 q 225 399 185 347 l 185 0 z"},"z":{"x_min":0,"x_max":603,"ha":603,"o":"m 66 0 l 66 72 l 414 458 l 79 458 l 79 530 l 527 530 l 527 458 l 180 72 l 536 72 l 536 0 z"},"B":{"x_min":0,"x_max":603,"ha":603,"o":"m 90 0 l 90 723 l 292 723 q 350 723 388 716 q 444 706 478 661 q 512 617 512 561 q 512 509 482 462 q 467 439 447 420 q 426 401 369 376 q 457 352 500 300 q 543 248 543 181 q 543 136 521 95 q 500 55 462 32 q 426 9 384 5 q 342 0 279 0 z m 187 404 l 220 404 q 261 404 297 410 q 333 416 360 436 q 386 453 400 481 q 415 508 415 539 q 415 568 402 591 q 389 614 369 626 q 342 644 306 647 q 271 650 231 650 l 187 650 z m 187 72 l 273 72 q 312 72 344 76 q 376 80 396 94 q 416 108 428 134 q 440 160 440 188 q 440 250 386 297 q 332 343 222 343 l 187 343 z"},"K":{"x_min":0,"x_max":603,"ha":603,"o":"m 83 0 l 83 723 l 179 723 l 179 368 l 441 723 l 539 723 l 286 379 l 587 0 l 472 0 l 179 368 l 179 0 z"},"R":{"x_min":0,"x_max":603,"ha":603,"o":"m 90 0 l 90 723 l 265 723 q 367 723 412 704 q 457 685 482 641 q 508 597 508 547 q 508 495 478 438 q 449 381 362 337 l 587 0 l 471 0 l 273 309 l 186 309 l 186 0 z m 186 381 l 237 381 q 320 381 363 428 q 405 476 405 539 q 405 573 391 598 q 377 623 347 636 q 317 650 245 650 l 186 650 z"},"T":{"x_min":0,"x_max":603,"ha":603,"o":"m 253 0 l 253 650 l 12 650 l 12 723 l 590 723 l 590 650 l 350 650 l 350 0 z"},"P":{"x_min":0,"x_max":603,"ha":603,"o":"m 111 0 l 111 723 l 315 723 q 378 723 423 714 q 491 702 528 654 q 565 607 565 530 q 565 416 489 353 q 413 289 278 289 l 208 289 l 208 0 z m 208 361 l 268 361 q 385 361 424 412 q 462 463 462 529 q 462 595 417 626 q 397 640 374 645 q 351 650 303 650 l 208 650 z"},"|":{"x_min":0,"x_max":603,"ha":603,"o":"m 265 -145 l 265 771 l 337 771 l 337 -145 z"},"t":{"x_min":0,"x_max":603,"ha":603,"o":"m 538 0 q 466 -12 398 -12 q 282 -12 238 30 q 212 55 204 93 q 196 131 196 190 l 196 446 l 63 446 l 63 518 l 196 518 l 196 632 l 292 632 l 292 518 l 527 518 l 527 446 l 292 446 l 292 174 q 292 125 297 111 q 302 98 314 88 q 334 72 362 66 q 390 60 419 60 q 479 60 538 74 z"},"M":{"x_min":0,"x_max":603,"ha":603,"o":"m 46 0 l 46 723 l 162 723 l 299 312 l 300 312 l 436 723 l 556 723 l 556 0 l 478 0 l 478 634 l 477 634 l 335 193 l 254 193 l 114 623 l 113 623 l 113 0 z"},"g":{"x_min":0,"x_max":603,"ha":603,"o":"m 104 -177 l 114 -96 q 176 -122 209 -127 q 243 -133 274 -133 q 354 -133 389 -97 q 409 -77 417 -51 q 424 -26 429 14 l 439 110 l 433 110 q 414 76 400 62 q 385 48 369 36 q 343 18 316 9 q 290 0 258 0 q 212 0 175 18 q 138 36 116 65 q 88 102 74 152 q 60 202 60 255 q 60 372 118 457 q 177 542 283 542 q 322 542 355 529 q 389 516 436 470 l 442 470 l 442 530 l 526 530 l 526 106 q 526 21 517 -31 q 508 -83 475 -126 q 439 -171 390 -188 q 342 -205 273 -205 q 198 -205 104 -177 z m 430 188 l 430 396 q 393 438 361 454 q 329 470 296 470 q 228 470 195 411 q 163 353 163 262 q 163 179 193 132 q 224 84 279 84 q 324 84 372 121 q 387 133 399 146 q 412 158 430 188 z"},"j":{"x_min":0,"x_max":603,"ha":603,"o":"m 72 -179 l 72 -99 q 95 -109 106 -113 q 132 -123 162 -128 q 191 -133 221 -133 q 286 -133 308 -98 q 322 -77 325 -50 q 328 -23 328 13 l 328 458 l 111 458 l 111 530 l 424 530 l 424 33 q 424 -26 416 -69 q 407 -111 379 -143 q 350 -176 310 -190 q 269 -205 221 -205 q 152 -205 72 -179 z m 316 650 l 316 771 l 437 771 l 437 650 z"},"i":{"x_min":0,"x_max":603,"ha":603,"o":"m 277 0 l 277 458 l 84 458 l 84 530 l 374 530 l 374 0 z m 265 650 l 265 771 l 386 771 l 386 650 z"},"y":{"x_min":0,"x_max":603,"ha":603,"o":"m 69 -193 l 69 -121 l 108 -121 q 166 -121 193 -99 q 208 -86 218 -71 q 228 -55 240 -27 l 264 23 l 42 530 l 141 530 l 314 133 l 489 530 l 576 530 l 309 -68 q 279 -134 232 -167 q 208 -183 181 -188 q 153 -193 110 -193 z"},"@":{"x_min":0,"x_max":603,"ha":603,"o":"m 470 16 q 381 -18 315 -18 q 238 -18 175 24 q 111 66 73 149 q 36 232 36 338 q 36 451 77 546 q 118 642 188 692 q 257 741 349 741 q 446 741 494 687 q 542 633 542 525 l 542 205 l 603 205 l 603 145 l 470 145 l 470 307 q 437 208 401 173 q 365 139 330 139 q 287 139 255 187 q 223 234 223 320 q 223 395 249 456 q 274 517 316 550 q 359 584 408 584 q 421 584 437 580 q 453 576 470 568 q 459 636 424 658 q 389 681 344 681 q 281 681 228 639 q 174 598 141 512 q 108 426 108 337 q 108 252 138 181 q 167 110 217 76 q 268 42 324 42 q 387 42 470 83 z m 470 428 l 470 512 q 455 522 441 527 q 426 532 413 532 q 360 532 328 479 q 295 426 295 331 q 295 274 308 241 q 320 208 340 210 q 375 212 413 289 q 451 366 470 428 z"},".":{"x_min":0,"x_max":603,"ha":603,"o":"m 229 0 l 229 145 l 374 145 l 374 0 z"},"p":{"x_min":0,"x_max":603,"ha":603,"o":"m 87 -193 l 87 530 l 184 530 l 178 431 l 184 431 q 219 486 262 514 q 305 542 357 542 q 448 542 500 471 q 551 400 551 283 q 551 151 492 72 q 461 31 418 9 q 376 -12 329 -12 q 291 -12 255 2 q 220 17 184 60 l 178 60 l 184 -12 l 184 -193 z m 184 132 q 217 96 250 78 q 283 60 315 60 q 369 60 409 108 q 449 157 449 272 q 449 375 417 417 q 385 460 337 460 q 304 460 263 436 q 222 412 184 358 z"},"X":{"x_min":0,"x_max":603,"ha":603,"o":"m 5 0 l 249 369 l 26 723 l 140 723 l 311 453 l 489 723 l 583 723 l 356 380 l 595 0 l 481 0 l 295 296 l 99 0 z"},"*":{"x_min":0,"x_max":603,"ha":603,"o":"m 343 551 l 493 619 l 522 527 l 362 494 l 362 501 q 362 527 343 551 z m 357 480 l 468 359 l 390 302 l 309 444 q 339 453 357 480 z m 293 444 l 213 302 l 135 359 l 245 480 q 263 453 293 444 z m 240 494 l 80 527 l 110 619 l 259 551 q 240 527 240 500 z m 271 560 l 253 723 l 350 723 l 332 560 q 314 566 301 566 q 288 566 271 560 z"},"Y":{"x_min":0,"x_max":603,"ha":603,"o":"m 253 0 l 253 305 l 16 723 l 126 723 l 312 396 l 508 723 l 599 723 l 350 305 l 350 0 z"},"c":{"x_min":0,"x_max":603,"ha":603,"o":"m 539 17 q 453 -12 368 -12 q 223 -12 151 63 q 80 139 80 265 q 80 390 152 466 q 224 542 359 542 q 443 542 529 517 l 529 436 q 435 470 368 470 q 280 470 231 415 q 182 359 182 265 q 182 169 235 115 q 289 60 381 60 q 451 60 539 93 z"},"!":{"x_min":0,"x_max":603,"ha":603,"o":"m 265 205 l 253 578 l 253 723 l 349 723 l 349 578 l 337 205 z m 241 0 l 241 108 l 361 108 l 361 0 z"},"/":{"x_min":0,"x_max":603,"ha":603,"o":"m 566 771 l 117 -145 l 37 -145 l 486 771 z"},"[":{"x_min":0,"x_max":603,"ha":603,"o":"m 217 -145 l 217 771 l 518 771 l 518 699 l 301 699 l 301 -72 l 518 -72 l 518 -145 z"},"6":{"x_min":0,"x_max":603,"ha":603,"o":"m 509 714 l 509 631 q 448 658 422 663 q 396 669 371 669 q 276 669 228 587 q 180 505 180 370 q 205 406 229 424 q 254 441 284 452 q 314 462 345 462 q 399 462 446 432 q 493 403 521 352 q 548 302 548 236 q 548 166 518 105 q 488 44 438 13 q 387 -18 321 -18 q 200 -18 139 79 q 79 176 79 347 q 79 479 117 565 q 155 650 219 696 q 284 741 362 741 q 421 741 509 714 z m 333 54 q 392 54 423 104 q 455 154 455 217 q 455 265 438 308 q 422 351 390 372 q 358 393 323 393 q 274 393 233 357 q 192 321 192 237 q 192 156 230 105 q 267 54 333 54 z"},"r":{"x_min":0,"x_max":603,"ha":603,"o":"m 150 0 l 150 530 l 247 530 l 241 431 l 247 431 q 280 481 326 511 q 373 542 444 542 q 487 542 542 530 l 542 379 l 470 379 l 470 455 q 447 460 429 460 q 380 460 334 431 q 289 403 247 345 l 247 0 z"},"2":{"x_min":0,"x_max":603,"ha":603,"o":"m 82 0 l 82 84 q 142 200 260 317 l 303 360 q 393 450 393 541 q 393 597 359 633 q 326 668 267 668 q 243 668 219 664 q 195 660 169 650 q 144 641 100 618 l 100 703 q 190 741 276 741 q 350 741 396 715 q 443 688 469 644 q 496 600 496 544 q 496 491 470 442 q 445 392 374 325 l 333 286 q 298 254 271 221 q 244 188 225 156 q 206 124 196 84 l 492 84 l 492 0 z"},"{":{"x_min":0,"x_max":603,"ha":603,"o":"m 500 771 l 500 699 l 461 699 q 379 699 354 678 q 329 657 329 619 q 329 604 334 574 l 345 506 q 351 472 351 450 q 351 420 343 395 q 334 370 313 347 q 292 325 254 313 q 292 301 313 279 q 334 257 342 232 q 351 207 351 175 q 351 153 345 120 l 334 53 q 329 23 329 7 q 329 -18 341 -36 q 353 -55 379 -63 q 406 -72 461 -72 l 500 -72 l 500 -145 l 447 -145 q 370 -145 327 -127 q 284 -109 263 -76 q 241 -42 241 -4 q 241 25 248 62 l 265 149 q 268 168 268 188 q 268 217 258 235 q 247 252 225 265 q 202 277 159 277 l 114 277 l 114 350 l 159 350 q 202 350 224 362 q 247 374 257 391 q 268 409 268 439 q 268 458 265 478 l 248 564 q 241 601 241 630 q 241 669 263 702 q 284 735 327 753 q 371 771 447 771 z"},"9":{"x_min":0,"x_max":603,"ha":603,"o":"m 112 7 l 112 90 q 177 64 203 59 q 229 54 251 54 q 342 54 392 135 q 441 215 441 354 q 416 317 391 299 q 367 281 337 271 q 307 261 275 261 q 222 261 175 290 q 128 320 100 371 q 73 421 73 486 q 73 557 103 618 q 133 679 183 710 q 233 741 300 741 q 421 741 481 644 q 542 547 542 376 q 542 244 504 158 q 466 72 402 27 q 337 -18 260 -18 q 203 -18 112 7 z m 288 668 q 229 668 198 619 q 166 569 166 506 q 166 458 182 415 q 199 372 231 351 q 263 330 298 330 q 347 330 388 366 q 429 402 429 486 q 429 567 391 618 q 354 668 288 668 z"}," ":{"x_min":0,"x_max":603,"ha":603,"o":""},"I":{"x_min":0,"x_max":603,"ha":603,"o":"m 84 0 l 84 72 l 253 72 l 253 650 l 84 650 l 84 723 l 518 723 l 518 650 l 350 650 l 350 72 l 518 72 l 518 0 z"},"H":{"x_min":0,"x_max":603,"ha":603,"o":"m 72 0 l 72 723 l 168 723 l 168 416 l 434 416 l 434 723 l 530 723 l 530 0 l 434 0 l 434 343 l 168 343 l 168 0 z"},"4":{"x_min":0,"x_max":603,"ha":603,"o":"m 355 0 l 355 193 l 54 193 l 54 274 l 355 723 l 446 723 l 446 265 l 542 265 l 542 193 l 446 193 l 446 0 z m 135 265 l 355 265 l 355 593 z"},"~":{"x_min":0,"x_max":603,"ha":603,"o":"m 42 187 q 42 249 76 298 q 109 348 175 348 q 201 348 223 341 q 245 334 277 316 l 349 276 q 404 245 434 245 q 448 245 463 253 q 478 261 485 276 q 492 291 494 332 l 560 332 q 560 269 526 219 q 492 170 427 170 q 402 170 379 177 q 357 184 325 202 l 253 242 q 198 273 168 273 q 154 273 139 265 q 124 257 117 242 q 110 227 108 187 z"},"D":{"x_min":0,"x_max":603,"ha":603,"o":"m 63 0 l 63 723 l 252 723 q 421 723 493 631 q 565 539 565 375 q 565 290 546 218 q 526 146 477 92 q 430 40 369 20 q 309 0 227 0 z m 160 72 l 208 72 q 309 72 360 103 q 410 134 436 200 q 462 265 462 366 q 462 465 438 529 q 413 592 366 621 q 320 651 205 651 l 160 650 z"},"^":{"x_min":0,"x_max":603,"ha":603,"o":"m 42 145 l 301 723 l 560 145 l 479 145 l 301 542 l 123 145 z"},"0":{"x_min":0,"x_max":603,"ha":603,"o":"m 301 -18 q 181 -18 117 92 q 54 203 54 362 q 54 519 116 630 q 179 741 301 741 q 423 741 486 630 q 548 519 548 362 q 548 203 485 92 q 422 -18 301 -18 z m 301 54 q 368 54 407 126 q 446 198 446 362 q 446 525 407 597 q 368 668 301 668 q 234 668 195 597 q 157 525 157 362 q 157 198 195 126 q 234 54 301 54 z"},"F":{"x_min":0,"x_max":603,"ha":603,"o":"m 121 0 l 121 723 l 566 723 l 566 650 l 217 650 l 217 390 l 515 390 l 515 317 l 217 317 l 217 0 z"},"`":{"x_min":0,"x_max":603,"ha":603,"o":"m 337 626 l 205 771 l 313 771 l 421 626 z"},"k":{"x_min":0,"x_max":603,"ha":603,"o":"m 104 0 l 104 771 l 200 771 l 200 277 l 423 530 l 527 530 l 317 292 l 580 0 l 450 0 l 200 277 l 200 0 z"},"u":{"x_min":0,"x_max":603,"ha":603,"o":"m 514 530 l 514 0 l 417 0 l 423 100 l 417 100 q 385 45 337 16 q 290 -12 236 -12 q 161 -12 120 39 q 99 64 93 93 q 86 123 86 167 l 86 530 l 182 530 l 182 194 q 182 163 185 145 q 188 126 198 111 q 209 95 227 87 q 245 79 266 79 q 305 79 341 105 q 377 131 417 184 l 417 530 z"},"]":{"x_min":0,"x_max":603,"ha":603,"o":"m 386 771 l 386 -145 l 84 -145 l 84 -72 l 301 -72 l 301 699 l 84 699 l 84 771 z"},"U":{"x_min":0,"x_max":603,"ha":603,"o":"m 75 723 l 171 723 l 171 243 q 171 157 188 123 q 206 88 235 71 q 264 54 304 54 q 363 54 404 90 q 444 126 444 246 l 444 723 l 528 723 l 528 260 q 528 182 520 142 q 506 78 451 30 q 396 -18 305 -18 q 197 -18 135 44 q 104 76 90 119 q 81 147 78 174 q 75 201 75 245 z"},"o":{"x_min":0,"x_max":603,"ha":603,"o":"m 301 -12 q 181 -12 116 65 q 51 142 51 265 q 51 389 116 465 q 181 542 301 542 q 421 542 486 465 q 551 389 551 265 q 551 142 486 65 q 421 -12 301 -12 z m 301 60 q 371 60 410 115 q 449 169 449 265 q 449 361 410 415 q 371 470 301 470 q 232 470 193 415 q 154 361 154 265 q 154 169 193 115 q 231 60 301 60 z"},"N":{"x_min":0,"x_max":603,"ha":603,"o":"m 72 0 l 72 723 l 163 723 l 451 173 l 452 173 l 452 723 l 530 723 l 530 0 l 441 0 l 152 553 l 150 553 l 150 0 z"},"+":{"x_min":0,"x_max":603,"ha":603,"o":"m 265 0 l 265 223 l 42 223 l 42 295 l 265 295 l 265 518 l 337 518 l 337 295 l 560 295 l 560 223 l 337 223 l 337 0 z"},"G":{"x_min":0,"x_max":603,"ha":603,"o":"m 551 16 q 476 -9 441 -14 q 406 -18 374 -18 q 270 -18 197 25 q 123 68 80 156 q 38 245 38 360 q 38 469 77 558 q 116 646 192 694 q 268 741 371 741 q 447 741 544 714 l 544 625 q 454 668 367 668 q 301 668 250 633 q 198 598 169 521 q 140 445 140 354 q 140 262 172 198 q 203 133 262 96 q 322 60 392 60 q 417 60 455 67 l 455 311 l 551 311 z"},"q":{"x_min":0,"x_max":603,"ha":603,"o":"m 518 530 l 518 -193 l 422 -193 l 422 0 l 428 100 l 422 100 q 387 44 343 16 q 300 -12 248 -12 q 158 -12 106 59 q 54 129 54 248 q 54 378 114 458 q 145 500 187 521 q 229 542 277 542 q 314 542 350 528 q 385 514 422 470 l 428 470 l 446 530 z m 422 397 q 388 434 355 452 q 322 470 290 470 q 237 470 197 422 q 157 374 157 257 q 157 155 188 113 q 220 70 269 70 q 302 70 343 94 q 384 119 422 172 z"},"d":{"x_min":0,"x_max":603,"ha":603,"o":"m 430 0 l 436 100 l 430 100 q 395 44 351 16 q 308 -12 256 -12 q 166 -12 114 59 q 62 129 62 248 q 62 378 122 458 q 152 500 195 521 q 237 542 285 542 q 322 542 358 528 q 393 514 430 470 l 436 470 l 430 542 l 430 771 l 526 771 l 526 0 z m 430 397 q 396 434 363 452 q 330 470 298 470 q 245 470 205 422 q 165 374 165 257 q 165 155 196 113 q 228 70 276 70 q 310 70 351 94 q 392 119 430 172 z"},"1":{"x_min":0,"x_max":603,"ha":603,"o":"m 90 0 l 90 72 l 283 72 l 283 634 l 90 591 l 90 650 l 379 741 l 379 72 l 572 72 l 572 0 z"},"5":{"x_min":0,"x_max":603,"ha":603,"o":"m 132 4 l 132 86 q 214 54 264 54 q 321 54 361 99 q 400 145 400 218 q 400 299 347 340 q 294 380 188 380 q 170 380 146 378 l 146 723 l 484 723 l 484 639 l 227 639 l 227 451 q 361 451 432 384 q 503 316 503 211 q 503 111 434 46 q 364 -18 267 -18 q 209 -18 132 4 z"}}}
